<svg width="208" height="154" viewBox="0 0 208 154" fill="none" xmlns="http://www.w3.org/2000/svg">
<g filter="url(#filter0_d_438_188)">
<rect x="4" width="200" height="110" rx="25" fill="white"/>
</g>
<g filter="url(#filter1_i_438_188)">
<path d="M104 10C79.16 10 59 30.16 59 55C59 79.84 79.16 100 104 100C128.84 100 149 79.84 149 55C149 30.16 128.84 10 104 10ZM108.5 77.5H99.5V50.5H108.5V77.5ZM108.5 41.5H99.5V32.5H108.5V41.5Z" fill="#FF6953"/>
</g>
<g filter="url(#filter2_d_438_188)">
<path d="M22.2188 137.297H27.6875C27.6146 138.88 27.1875 140.276 26.4062 141.484C25.625 142.693 24.5417 143.635 23.1562 144.312C21.7812 144.979 20.1562 145.312 18.2812 145.312C16.7604 145.312 15.401 145.057 14.2031 144.547C13.0156 144.036 12.0052 143.302 11.1719 142.344C10.349 141.385 9.71875 140.224 9.28125 138.859C8.85417 137.495 8.64062 135.958 8.64062 134.25V133.016C8.64062 131.307 8.86458 129.771 9.3125 128.406C9.77083 127.031 10.4167 125.865 11.25 124.906C12.0938 123.938 13.1042 123.198 14.2812 122.688C15.4583 122.177 16.7656 121.922 18.2031 121.922C20.1823 121.922 21.8542 122.276 23.2188 122.984C24.5833 123.693 25.6406 124.667 26.3906 125.906C27.1406 127.135 27.5833 128.536 27.7188 130.109H22.25C22.2292 129.255 22.0833 128.542 21.8125 127.969C21.5417 127.385 21.1146 126.948 20.5312 126.656C19.9479 126.365 19.1719 126.219 18.2031 126.219C17.526 126.219 16.9375 126.344 16.4375 126.594C15.9375 126.844 15.5208 127.24 15.1875 127.781C14.8542 128.323 14.6042 129.026 14.4375 129.891C14.2812 130.745 14.2031 131.776 14.2031 132.984V134.25C14.2031 135.458 14.276 136.49 14.4219 137.344C14.5677 138.198 14.8021 138.896 15.125 139.438C15.4479 139.979 15.8646 140.38 16.375 140.641C16.8958 140.891 17.5312 141.016 18.2812 141.016C19.1146 141.016 19.8177 140.885 20.3906 140.625C20.9635 140.354 21.4062 139.948 21.7188 139.406C22.0312 138.854 22.1979 138.151 22.2188 137.297ZM49.5312 133.172V134.094C49.5312 135.833 49.2865 137.396 48.7969 138.781C48.3177 140.156 47.6354 141.333 46.75 142.312C45.8646 143.281 44.8177 144.026 43.6094 144.547C42.401 145.057 41.0677 145.312 39.6094 145.312C38.1406 145.312 36.7969 145.057 35.5781 144.547C34.3698 144.026 33.3177 143.281 32.4219 142.312C31.5365 141.333 30.849 140.156 30.3594 138.781C29.8802 137.396 29.6406 135.833 29.6406 134.094V133.172C29.6406 131.432 29.8802 129.87 30.3594 128.484C30.849 127.099 31.5312 125.922 32.4062 124.953C33.2917 123.974 34.3385 123.229 35.5469 122.719C36.7656 122.198 38.1094 121.938 39.5781 121.938C41.0365 121.938 42.3698 122.198 43.5781 122.719C44.7969 123.229 45.849 123.974 46.7344 124.953C47.6198 125.922 48.3073 127.099 48.7969 128.484C49.2865 129.87 49.5312 131.432 49.5312 133.172ZM43.9688 134.094V133.141C43.9688 132.016 43.8698 131.026 43.6719 130.172C43.4844 129.307 43.2031 128.583 42.8281 128C42.4531 127.417 41.9896 126.979 41.4375 126.688C40.8958 126.385 40.276 126.234 39.5781 126.234C38.849 126.234 38.2135 126.385 37.6719 126.688C37.1302 126.979 36.6771 127.417 36.3125 128C35.9479 128.583 35.6719 129.307 35.4844 130.172C35.3073 131.026 35.2188 132.016 35.2188 133.141V134.094C35.2188 135.208 35.3073 136.198 35.4844 137.062C35.6719 137.917 35.9479 138.641 36.3125 139.234C36.6875 139.828 37.1458 140.276 37.6875 140.578C38.2396 140.88 38.8802 141.031 39.6094 141.031C40.3073 141.031 40.9271 140.88 41.4688 140.578C42.0104 140.276 42.4635 139.828 42.8281 139.234C43.2031 138.641 43.4844 137.917 43.6719 137.062C43.8698 136.198 43.9688 135.208 43.9688 134.094ZM71.375 122.25V145H65.9062L57.8594 130.844V145H52.375V122.25H57.8594L65.9062 136.406V122.25H71.375ZM85.3906 122.25V145H79.9062V122.25H85.3906ZM92.2344 122.25V126.484H73.2188V122.25H92.2344ZM102.297 127.031L96.75 145H90.8594L99.2188 122.25H102.953L102.297 127.031ZM106.891 145L101.328 127.031L100.609 122.25H104.391L112.797 145H106.891ZM106.672 136.516V140.75H95V136.516H106.672ZM127.062 137.297H132.531C132.458 138.88 132.031 140.276 131.25 141.484C130.469 142.693 129.385 143.635 128 144.312C126.625 144.979 125 145.312 123.125 145.312C121.604 145.312 120.245 145.057 119.047 144.547C117.859 144.036 116.849 143.302 116.016 142.344C115.193 141.385 114.562 140.224 114.125 138.859C113.698 137.495 113.484 135.958 113.484 134.25V133.016C113.484 131.307 113.708 129.771 114.156 128.406C114.615 127.031 115.26 125.865 116.094 124.906C116.938 123.938 117.948 123.198 119.125 122.688C120.302 122.177 121.609 121.922 123.047 121.922C125.026 121.922 126.698 122.276 128.062 122.984C129.427 123.693 130.484 124.667 131.234 125.906C131.984 127.135 132.427 128.536 132.562 130.109H127.094C127.073 129.255 126.927 128.542 126.656 127.969C126.385 127.385 125.958 126.948 125.375 126.656C124.792 126.365 124.016 126.219 123.047 126.219C122.37 126.219 121.781 126.344 121.281 126.594C120.781 126.844 120.365 127.24 120.031 127.781C119.698 128.323 119.448 129.026 119.281 129.891C119.125 130.745 119.047 131.776 119.047 132.984V134.25C119.047 135.458 119.12 136.49 119.266 137.344C119.411 138.198 119.646 138.896 119.969 139.438C120.292 139.979 120.708 140.38 121.219 140.641C121.74 140.891 122.375 141.016 123.125 141.016C123.958 141.016 124.661 140.885 125.234 140.625C125.807 140.354 126.25 139.948 126.562 139.406C126.875 138.854 127.042 138.151 127.062 137.297ZM145.672 122.25V145H140.188V122.25H145.672ZM152.516 122.25V126.484H133.5V122.25H152.516ZM174.219 122.25H179.703V137.109C179.703 138.88 179.333 140.38 178.594 141.609C177.854 142.828 176.818 143.75 175.484 144.375C174.151 145 172.583 145.312 170.781 145.312C169 145.312 167.432 145 166.078 144.375C164.734 143.75 163.682 142.828 162.922 141.609C162.172 140.38 161.797 138.88 161.797 137.109V122.25H167.297V137.109C167.297 138.047 167.432 138.812 167.703 139.406C167.974 139.99 168.37 140.417 168.891 140.688C169.411 140.958 170.042 141.094 170.781 141.094C171.531 141.094 172.161 140.958 172.672 140.688C173.182 140.417 173.568 139.99 173.828 139.406C174.089 138.812 174.219 138.047 174.219 137.109V122.25ZM194.875 138.953C194.875 138.599 194.823 138.281 194.719 138C194.615 137.708 194.422 137.438 194.141 137.188C193.859 136.938 193.453 136.688 192.922 136.438C192.401 136.177 191.714 135.906 190.859 135.625C189.859 135.292 188.896 134.917 187.969 134.5C187.042 134.073 186.214 133.578 185.484 133.016C184.755 132.443 184.177 131.776 183.75 131.016C183.323 130.245 183.109 129.349 183.109 128.328C183.109 127.349 183.328 126.469 183.766 125.688C184.203 124.896 184.812 124.224 185.594 123.672C186.385 123.109 187.312 122.682 188.375 122.391C189.438 122.089 190.599 121.938 191.859 121.938C193.526 121.938 194.995 122.229 196.266 122.812C197.547 123.385 198.547 124.203 199.266 125.266C199.995 126.318 200.359 127.562 200.359 129H194.906C194.906 128.427 194.786 127.922 194.547 127.484C194.318 127.047 193.969 126.703 193.5 126.453C193.031 126.203 192.443 126.078 191.734 126.078C191.047 126.078 190.469 126.182 190 126.391C189.531 126.599 189.177 126.88 188.938 127.234C188.698 127.578 188.578 127.958 188.578 128.375C188.578 128.719 188.672 129.031 188.859 129.312C189.057 129.583 189.333 129.839 189.688 130.078C190.052 130.318 190.49 130.547 191 130.766C191.521 130.984 192.104 131.198 192.75 131.406C193.958 131.792 195.031 132.224 195.969 132.703C196.917 133.172 197.714 133.708 198.359 134.312C199.016 134.906 199.51 135.583 199.844 136.344C200.188 137.104 200.359 137.964 200.359 138.922C200.359 139.943 200.161 140.849 199.766 141.641C199.37 142.432 198.802 143.104 198.062 143.656C197.323 144.198 196.438 144.609 195.406 144.891C194.375 145.172 193.224 145.312 191.953 145.312C190.786 145.312 189.635 145.167 188.5 144.875C187.375 144.573 186.354 144.115 185.438 143.5C184.521 142.875 183.786 142.078 183.234 141.109C182.693 140.13 182.422 138.969 182.422 137.625H187.922C187.922 138.292 188.01 138.854 188.188 139.312C188.365 139.771 188.625 140.141 188.969 140.422C189.312 140.693 189.734 140.891 190.234 141.016C190.734 141.13 191.307 141.188 191.953 141.188C192.651 141.188 193.214 141.089 193.641 140.891C194.068 140.682 194.38 140.411 194.578 140.078C194.776 139.734 194.875 139.359 194.875 138.953Z" fill="white"/>
</g>
<defs>
<filter id="filter0_d_438_188" x="0" y="0" width="208" height="118" filterUnits="userSpaceOnUse" color-interpolation-filters="sRGB">
<feFlood flood-opacity="0" result="BackgroundImageFix"/>
<feColorMatrix in="SourceAlpha" type="matrix" values="0 0 0 0 0 0 0 0 0 0 0 0 0 0 0 0 0 0 127 0" result="hardAlpha"/>
<feOffset dy="4"/>
<feGaussianBlur stdDeviation="2"/>
<feComposite in2="hardAlpha" operator="out"/>
<feColorMatrix type="matrix" values="0 0 0 0 0 0 0 0 0 0 0 0 0 0 0 0 0 0 0.25 0"/>
<feBlend mode="normal" in2="BackgroundImageFix" result="effect1_dropShadow_438_188"/>
<feBlend mode="normal" in="SourceGraphic" in2="effect1_dropShadow_438_188" result="shape"/>
</filter>
<filter id="filter1_i_438_188" x="59" y="10" width="90" height="94" filterUnits="userSpaceOnUse" color-interpolation-filters="sRGB">
<feFlood flood-opacity="0" result="BackgroundImageFix"/>
<feBlend mode="normal" in="SourceGraphic" in2="BackgroundImageFix" result="shape"/>
<feColorMatrix in="SourceAlpha" type="matrix" values="0 0 0 0 0 0 0 0 0 0 0 0 0 0 0 0 0 0 127 0" result="hardAlpha"/>
<feOffset dy="4"/>
<feGaussianBlur stdDeviation="2"/>
<feComposite in2="hardAlpha" operator="arithmetic" k2="-1" k3="1"/>
<feColorMatrix type="matrix" values="0 0 0 0 0 0 0 0 0 0 0 0 0 0 0 0 0 0 0.25 0"/>
<feBlend mode="normal" in2="shape" result="effect1_innerShadow_438_188"/>
</filter>
<filter id="filter2_d_438_188" x="4.64062" y="121.922" width="199.719" height="31.3906" filterUnits="userSpaceOnUse" color-interpolation-filters="sRGB">
<feFlood flood-opacity="0" result="BackgroundImageFix"/>
<feColorMatrix in="SourceAlpha" type="matrix" values="0 0 0 0 0 0 0 0 0 0 0 0 0 0 0 0 0 0 127 0" result="hardAlpha"/>
<feOffset dy="4"/>
<feGaussianBlur stdDeviation="2"/>
<feComposite in2="hardAlpha" operator="out"/>
<feColorMatrix type="matrix" values="0 0 0 0 0 0 0 0 0 0 0 0 0 0 0 0 0 0 0.25 0"/>
<feBlend mode="normal" in2="BackgroundImageFix" result="effect1_dropShadow_438_188"/>
<feBlend mode="normal" in="SourceGraphic" in2="effect1_dropShadow_438_188" result="shape"/>
</filter>
</defs>
</svg>
