<svg width="208" height="154" viewBox="0 0 208 154" fill="none" xmlns="http://www.w3.org/2000/svg">
<g filter="url(#filter0_d_438_174)">
<rect x="4" width="200" height="110" rx="25" fill="white"/>
</g>
<g filter="url(#filter1_i_438_174)">
<path d="M144.416 19.2655C136.86 15.8225 128.884 13.3798 120.691 12C119.569 13.995 118.555 16.0476 117.651 18.1492C108.924 16.8401 100.049 16.8401 91.321 18.1492C90.4171 16.0478 89.4026 13.9952 88.2819 12C80.0833 13.3915 72.1016 15.8399 64.5384 19.2836C49.5235 41.3953 45.4532 62.9578 47.4884 84.2143C56.2815 90.6809 66.1235 95.5988 76.5865 98.7544C78.9425 95.6004 81.0272 92.2544 82.8186 88.7519C79.4162 87.487 76.1322 85.9264 73.0047 84.0882C73.8278 83.494 74.6328 82.8818 75.4107 82.2876C84.5109 86.5474 94.4434 88.756 104.5 88.756C114.556 88.756 124.489 86.5474 133.589 82.2876C134.376 82.9268 135.181 83.5391 135.995 84.0882C132.861 85.9294 129.571 87.493 126.163 88.7609C127.952 92.2618 130.037 95.605 132.395 98.7544C142.867 95.6115 152.717 90.6959 161.511 84.2233C163.899 59.5727 157.432 38.2082 144.416 19.2655ZM85.3965 71.1417C79.7252 71.1417 75.0398 66.0189 75.0398 59.7167C75.0398 53.4145 79.5624 48.2467 85.3784 48.2467C91.1944 48.2467 95.8436 53.4145 95.7441 59.7167C95.6446 66.0189 91.1763 71.1417 85.3965 71.1417ZM123.603 71.1417C117.923 71.1417 113.255 66.0189 113.255 59.7167C113.255 53.4145 117.778 48.2467 123.603 48.2467C129.428 48.2467 134.041 53.4145 133.942 59.7167C133.842 66.0189 129.383 71.1417 123.603 71.1417Z" fill="#FF6953"/>
</g>
<g filter="url(#filter2_d_438_174)">
<path d="M45.5625 145H40.5156L40.5469 140.781H45.5625C46.6042 140.781 47.4844 140.531 48.2031 140.031C48.9323 139.531 49.4844 138.786 49.8594 137.797C50.2448 136.797 50.4375 135.568 50.4375 134.109V133.125C50.4375 132.031 50.3281 131.073 50.1094 130.25C49.901 129.417 49.5885 128.724 49.1719 128.172C48.7552 127.609 48.2344 127.188 47.6094 126.906C46.9948 126.625 46.2865 126.484 45.4844 126.484H40.4219V122.25H45.4844C47.026 122.25 48.4375 122.516 49.7188 123.047C51.0104 123.568 52.125 124.318 53.0625 125.297C54.0104 126.266 54.7396 127.417 55.25 128.75C55.7708 130.073 56.0312 131.542 56.0312 133.156V134.109C56.0312 135.714 55.7708 137.182 55.25 138.516C54.7396 139.849 54.0156 141 53.0781 141.969C52.1406 142.938 51.0312 143.688 49.75 144.219C48.4792 144.74 47.0833 145 45.5625 145ZM43.6562 122.25V145H38.1719V122.25H43.6562ZM64.7188 122.25V145H59.25V122.25H64.7188ZM80.2969 138.953C80.2969 138.599 80.2448 138.281 80.1406 138C80.0365 137.708 79.8438 137.438 79.5625 137.188C79.2812 136.938 78.875 136.688 78.3438 136.438C77.8229 136.177 77.1354 135.906 76.2812 135.625C75.2812 135.292 74.3177 134.917 73.3906 134.5C72.4635 134.073 71.6354 133.578 70.9062 133.016C70.1771 132.443 69.599 131.776 69.1719 131.016C68.7448 130.245 68.5312 129.349 68.5312 128.328C68.5312 127.349 68.75 126.469 69.1875 125.688C69.625 124.896 70.2344 124.224 71.0156 123.672C71.8073 123.109 72.7344 122.682 73.7969 122.391C74.8594 122.089 76.0208 121.938 77.2812 121.938C78.9479 121.938 80.4167 122.229 81.6875 122.812C82.9688 123.385 83.9688 124.203 84.6875 125.266C85.4167 126.318 85.7812 127.562 85.7812 129H80.3281C80.3281 128.427 80.2083 127.922 79.9688 127.484C79.7396 127.047 79.3906 126.703 78.9219 126.453C78.4531 126.203 77.8646 126.078 77.1562 126.078C76.4688 126.078 75.8906 126.182 75.4219 126.391C74.9531 126.599 74.599 126.88 74.3594 127.234C74.1198 127.578 74 127.958 74 128.375C74 128.719 74.0938 129.031 74.2812 129.312C74.4792 129.583 74.7552 129.839 75.1094 130.078C75.474 130.318 75.9115 130.547 76.4219 130.766C76.9427 130.984 77.526 131.198 78.1719 131.406C79.3802 131.792 80.4531 132.224 81.3906 132.703C82.3385 133.172 83.1354 133.708 83.7812 134.312C84.4375 134.906 84.9323 135.583 85.2656 136.344C85.6094 137.104 85.7812 137.964 85.7812 138.922C85.7812 139.943 85.5833 140.849 85.1875 141.641C84.7917 142.432 84.224 143.104 83.4844 143.656C82.7448 144.198 81.8594 144.609 80.8281 144.891C79.7969 145.172 78.6458 145.312 77.375 145.312C76.2083 145.312 75.0573 145.167 73.9219 144.875C72.7969 144.573 71.776 144.115 70.8594 143.5C69.9427 142.875 69.2083 142.078 68.6562 141.109C68.1146 140.13 67.8438 138.969 67.8438 137.625H73.3438C73.3438 138.292 73.4323 138.854 73.6094 139.312C73.7865 139.771 74.0469 140.141 74.3906 140.422C74.7344 140.693 75.1562 140.891 75.6562 141.016C76.1562 141.13 76.7292 141.188 77.375 141.188C78.0729 141.188 78.6354 141.089 79.0625 140.891C79.4896 140.682 79.8021 140.411 80 140.078C80.1979 139.734 80.2969 139.359 80.2969 138.953ZM101.547 137.297H107.016C106.943 138.88 106.516 140.276 105.734 141.484C104.953 142.693 103.87 143.635 102.484 144.312C101.109 144.979 99.4844 145.312 97.6094 145.312C96.0885 145.312 94.7292 145.057 93.5312 144.547C92.3438 144.036 91.3333 143.302 90.5 142.344C89.6771 141.385 89.0469 140.224 88.6094 138.859C88.1823 137.495 87.9688 135.958 87.9688 134.25V133.016C87.9688 131.307 88.1927 129.771 88.6406 128.406C89.099 127.031 89.7448 125.865 90.5781 124.906C91.4219 123.938 92.4323 123.198 93.6094 122.688C94.7865 122.177 96.0938 121.922 97.5312 121.922C99.5104 121.922 101.182 122.276 102.547 122.984C103.911 123.693 104.969 124.667 105.719 125.906C106.469 127.135 106.911 128.536 107.047 130.109H101.578C101.557 129.255 101.411 128.542 101.141 127.969C100.87 127.385 100.443 126.948 99.8594 126.656C99.276 126.365 98.5 126.219 97.5312 126.219C96.8542 126.219 96.2656 126.344 95.7656 126.594C95.2656 126.844 94.849 127.24 94.5156 127.781C94.1823 128.323 93.9323 129.026 93.7656 129.891C93.6094 130.745 93.5312 131.776 93.5312 132.984V134.25C93.5312 135.458 93.6042 136.49 93.75 137.344C93.8958 138.198 94.1302 138.896 94.4531 139.438C94.776 139.979 95.1927 140.38 95.7031 140.641C96.224 140.891 96.8594 141.016 97.6094 141.016C98.4427 141.016 99.1458 140.885 99.7188 140.625C100.292 140.354 100.734 139.948 101.047 139.406C101.359 138.854 101.526 138.151 101.547 137.297ZM128.859 133.172V134.094C128.859 135.833 128.615 137.396 128.125 138.781C127.646 140.156 126.964 141.333 126.078 142.312C125.193 143.281 124.146 144.026 122.938 144.547C121.729 145.057 120.396 145.312 118.938 145.312C117.469 145.312 116.125 145.057 114.906 144.547C113.698 144.026 112.646 143.281 111.75 142.312C110.865 141.333 110.177 140.156 109.688 138.781C109.208 137.396 108.969 135.833 108.969 134.094V133.172C108.969 131.432 109.208 129.87 109.688 128.484C110.177 127.099 110.859 125.922 111.734 124.953C112.62 123.974 113.667 123.229 114.875 122.719C116.094 122.198 117.438 121.938 118.906 121.938C120.365 121.938 121.698 122.198 122.906 122.719C124.125 123.229 125.177 123.974 126.062 124.953C126.948 125.922 127.635 127.099 128.125 128.484C128.615 129.87 128.859 131.432 128.859 133.172ZM123.297 134.094V133.141C123.297 132.016 123.198 131.026 123 130.172C122.812 129.307 122.531 128.583 122.156 128C121.781 127.417 121.318 126.979 120.766 126.688C120.224 126.385 119.604 126.234 118.906 126.234C118.177 126.234 117.542 126.385 117 126.688C116.458 126.979 116.005 127.417 115.641 128C115.276 128.583 115 129.307 114.812 130.172C114.635 131.026 114.547 132.016 114.547 133.141V134.094C114.547 135.208 114.635 136.198 114.812 137.062C115 137.917 115.276 138.641 115.641 139.234C116.016 139.828 116.474 140.276 117.016 140.578C117.568 140.88 118.208 141.031 118.938 141.031C119.635 141.031 120.255 140.88 120.797 140.578C121.339 140.276 121.792 139.828 122.156 139.234C122.531 138.641 122.812 137.917 123 137.062C123.198 136.198 123.297 135.208 123.297 134.094ZM131.703 122.25H140.656C142.406 122.25 143.927 122.51 145.219 123.031C146.51 123.552 147.505 124.323 148.203 125.344C148.911 126.365 149.266 127.625 149.266 129.125C149.266 130.427 149.062 131.516 148.656 132.391C148.25 133.266 147.682 133.99 146.953 134.562C146.234 135.125 145.396 135.589 144.438 135.953L142.641 136.969H135.125L135.094 132.734H140.656C141.354 132.734 141.932 132.609 142.391 132.359C142.849 132.109 143.193 131.755 143.422 131.297C143.661 130.828 143.781 130.271 143.781 129.625C143.781 128.969 143.661 128.406 143.422 127.938C143.182 127.469 142.828 127.109 142.359 126.859C141.901 126.609 141.333 126.484 140.656 126.484H137.188V145H131.703V122.25ZM144.156 145L139.125 134.938L144.938 134.906L150.031 144.766V145H144.156ZM159.969 145H154.922L154.953 140.781H159.969C161.01 140.781 161.891 140.531 162.609 140.031C163.339 139.531 163.891 138.786 164.266 137.797C164.651 136.797 164.844 135.568 164.844 134.109V133.125C164.844 132.031 164.734 131.073 164.516 130.25C164.307 129.417 163.995 128.724 163.578 128.172C163.161 127.609 162.641 127.188 162.016 126.906C161.401 126.625 160.693 126.484 159.891 126.484H154.828V122.25H159.891C161.432 122.25 162.844 122.516 164.125 123.047C165.417 123.568 166.531 124.318 167.469 125.297C168.417 126.266 169.146 127.417 169.656 128.75C170.177 130.073 170.438 131.542 170.438 133.156V134.109C170.438 135.714 170.177 137.182 169.656 138.516C169.146 139.849 168.422 141 167.484 141.969C166.547 142.938 165.438 143.688 164.156 144.219C162.885 144.74 161.49 145 159.969 145ZM158.062 122.25V145H152.578V122.25H158.062Z" fill="white"/>
</g>
<defs>
<filter id="filter0_d_438_174" x="0" y="0" width="208" height="118" filterUnits="userSpaceOnUse" color-interpolation-filters="sRGB">
<feFlood flood-opacity="0" result="BackgroundImageFix"/>
<feColorMatrix in="SourceAlpha" type="matrix" values="0 0 0 0 0 0 0 0 0 0 0 0 0 0 0 0 0 0 127 0" result="hardAlpha"/>
<feOffset dy="4"/>
<feGaussianBlur stdDeviation="2"/>
<feComposite in2="hardAlpha" operator="out"/>
<feColorMatrix type="matrix" values="0 0 0 0 0 0 0 0 0 0 0 0 0 0 0 0 0 0 0.25 0"/>
<feBlend mode="normal" in2="BackgroundImageFix" result="effect1_dropShadow_438_174"/>
<feBlend mode="normal" in="SourceGraphic" in2="effect1_dropShadow_438_174" result="shape"/>
</filter>
<filter id="filter1_i_438_174" x="47" y="12" width="115" height="90.7544" filterUnits="userSpaceOnUse" color-interpolation-filters="sRGB">
<feFlood flood-opacity="0" result="BackgroundImageFix"/>
<feBlend mode="normal" in="SourceGraphic" in2="BackgroundImageFix" result="shape"/>
<feColorMatrix in="SourceAlpha" type="matrix" values="0 0 0 0 0 0 0 0 0 0 0 0 0 0 0 0 0 0 127 0" result="hardAlpha"/>
<feOffset dy="4"/>
<feGaussianBlur stdDeviation="2"/>
<feComposite in2="hardAlpha" operator="arithmetic" k2="-1" k3="1"/>
<feColorMatrix type="matrix" values="0 0 0 0 0 0 0 0 0 0 0 0 0 0 0 0 0 0 0.25 0"/>
<feBlend mode="normal" in2="shape" result="effect1_innerShadow_438_174"/>
</filter>
<filter id="filter2_d_438_174" x="34.1719" y="121.922" width="140.266" height="31.3906" filterUnits="userSpaceOnUse" color-interpolation-filters="sRGB">
<feFlood flood-opacity="0" result="BackgroundImageFix"/>
<feColorMatrix in="SourceAlpha" type="matrix" values="0 0 0 0 0 0 0 0 0 0 0 0 0 0 0 0 0 0 127 0" result="hardAlpha"/>
<feOffset dy="4"/>
<feGaussianBlur stdDeviation="2"/>
<feComposite in2="hardAlpha" operator="out"/>
<feColorMatrix type="matrix" values="0 0 0 0 0 0 0 0 0 0 0 0 0 0 0 0 0 0 0.25 0"/>
<feBlend mode="normal" in2="BackgroundImageFix" result="effect1_dropShadow_438_174"/>
<feBlend mode="normal" in="SourceGraphic" in2="effect1_dropShadow_438_174" result="shape"/>
</filter>
</defs>
</svg>
