<svg width="981" height="118" viewBox="0 0 981 118" fill="none" xmlns="http://www.w3.org/2000/svg">
<g filter="url(#filter0_d_438_169)">
<path d="M34.875 8V99H17.6875V8H34.875ZM71.5625 47.3125V60.875H30.375V47.3125H71.5625ZM76.375 8V21.5625H30.375V8H76.375ZM161.75 51.1875V55.875C161.75 62.75 160.833 68.9375 159 74.4375C157.167 79.8958 154.562 84.5417 151.188 88.375C147.812 92.2083 143.792 95.1458 139.125 97.1875C134.458 99.2292 129.271 100.25 123.562 100.25C117.938 100.25 112.771 99.2292 108.062 97.1875C103.396 95.1458 99.3542 92.2083 95.9375 88.375C92.5208 84.5417 89.875 79.8958 88 74.4375C86.125 68.9375 85.1875 62.75 85.1875 55.875V51.1875C85.1875 44.2708 86.125 38.0833 88 32.625C89.875 27.1667 92.5 22.5208 95.875 18.6875C99.25 14.8125 103.271 11.8542 107.938 9.8125C112.646 7.77083 117.812 6.75 123.438 6.75C129.146 6.75 134.333 7.77083 139 9.8125C143.667 11.8542 147.688 14.8125 151.062 18.6875C154.479 22.5208 157.104 27.1667 158.938 32.625C160.812 38.0833 161.75 44.2708 161.75 51.1875ZM144.375 55.875V51.0625C144.375 46.1042 143.917 41.75 143 38C142.083 34.2083 140.729 31.0208 138.938 28.4375C137.146 25.8542 134.938 23.9167 132.312 22.625C129.688 21.2917 126.729 20.625 123.438 20.625C120.104 20.625 117.146 21.2917 114.562 22.625C112.021 23.9167 109.854 25.8542 108.062 28.4375C106.271 31.0208 104.896 34.2083 103.938 38C103.021 41.75 102.562 46.1042 102.562 51.0625V55.875C102.562 60.7917 103.021 65.1458 103.938 68.9375C104.896 72.7292 106.271 75.9375 108.062 78.5625C109.896 81.1458 112.104 83.1042 114.688 84.4375C117.271 85.7708 120.229 86.4375 123.562 86.4375C126.896 86.4375 129.854 85.7708 132.438 84.4375C135.021 83.1042 137.188 81.1458 138.938 78.5625C140.729 75.9375 142.083 72.7292 143 68.9375C143.917 65.1458 144.375 60.7917 144.375 55.875ZM188.625 8L206.812 40.4375L225.062 8H244.812L217.812 53.125L245.5 99H225.562L206.812 65.9375L188.125 99H168.125L195.812 53.125L168.812 8H188.625ZM316.375 85.5V99H268V85.5H316.375ZM273.25 8V99H256.062V8H273.25ZM310.062 45.5625V58.75H268V45.5625H310.062ZM316.188 8V21.5625H268V8H316.188ZM355.5 99H335.875L336 85.5H355.5C360.792 85.5 365.229 84.3333 368.812 82C372.396 79.625 375.104 76.2292 376.938 71.8125C378.771 67.3542 379.688 62.0208 379.688 55.8125V51.125C379.688 46.3333 379.167 42.1042 378.125 38.4375C377.083 34.7708 375.542 31.6875 373.5 29.1875C371.5 26.6875 369.021 24.7917 366.062 23.5C363.104 22.2083 359.708 21.5625 355.875 21.5625H335.5V8H355.875C361.958 8 367.5 9.02083 372.5 11.0625C377.542 13.1042 381.896 16.0417 385.562 19.875C389.271 23.6667 392.104 28.2083 394.062 33.5C396.062 38.7917 397.062 44.7083 397.062 51.25V55.8125C397.062 62.3125 396.062 68.2292 394.062 73.5625C392.104 78.8542 389.271 83.3958 385.562 87.1875C381.896 90.9792 377.521 93.8958 372.438 95.9375C367.354 97.9792 361.708 99 355.5 99ZM345.5 8V99H328.312V8H345.5Z" fill="white"/>
</g>
<g filter="url(#filter1_d_438_169)">
<rect x="437" width="540" height="110" rx="20" fill="white"/>
<rect x="439.5" y="2.5" width="535" height="105" rx="17.5" stroke="white" stroke-width="5"/>
</g>
<g filter="url(#filter2_i_438_169)">
<path d="M499.5 75.375C499.5 73.625 499.229 72.0625 498.688 70.6875C498.188 69.2708 497.25 68 495.875 66.875C494.542 65.7083 492.646 64.5833 490.188 63.5C487.771 62.375 484.646 61.2083 480.812 60C476.562 58.6667 472.604 57.1667 468.938 55.5C465.271 53.8333 462.042 51.8958 459.25 49.6875C456.5 47.4792 454.354 44.9375 452.812 42.0625C451.271 39.1458 450.5 35.7708 450.5 31.9375C450.5 28.1875 451.292 24.7708 452.875 21.6875C454.5 18.6042 456.792 15.9583 459.75 13.75C462.708 11.5 466.188 9.77083 470.188 8.5625C474.229 7.35417 478.688 6.75 483.562 6.75C490.312 6.75 496.146 7.97917 501.062 10.4375C506.021 12.8958 509.854 16.2292 512.562 20.4375C515.271 24.6458 516.625 29.375 516.625 34.625H499.5C499.5 31.7917 498.896 29.2917 497.688 27.125C496.521 24.9583 494.729 23.25 492.312 22C489.938 20.75 486.938 20.125 483.312 20.125C479.812 20.125 476.896 20.6458 474.562 21.6875C472.271 22.7292 470.542 24.1458 469.375 25.9375C468.25 27.7292 467.688 29.7292 467.688 31.9375C467.688 33.6042 468.083 35.1042 468.875 36.4375C469.667 37.7292 470.854 38.9583 472.438 40.125C474.021 41.25 475.979 42.3125 478.312 43.3125C480.688 44.2708 483.438 45.2292 486.562 46.1875C491.562 47.6875 495.938 49.3542 499.688 51.1875C503.479 53.0208 506.625 55.1042 509.125 57.4375C511.667 59.7708 513.562 62.3958 514.812 65.3125C516.104 68.2292 516.75 71.5417 516.75 75.25C516.75 79.1667 515.979 82.6667 514.438 85.75C512.896 88.8333 510.688 91.4583 507.812 93.625C504.938 95.7917 501.479 97.4375 497.438 98.5625C493.438 99.6875 488.958 100.25 484 100.25C479.583 100.25 475.208 99.6667 470.875 98.5C466.583 97.2917 462.688 95.5 459.188 93.125C455.688 90.7083 452.896 87.6667 450.812 84C448.729 80.2917 447.688 75.9583 447.688 71H464.938C464.938 73.875 465.396 76.3333 466.312 78.375C467.271 80.375 468.604 82.0208 470.312 83.3125C472.062 84.5625 474.104 85.4792 476.438 86.0625C478.771 86.6458 481.292 86.9375 484 86.9375C487.5 86.9375 490.375 86.4583 492.625 85.5C494.917 84.5 496.625 83.125 497.75 81.375C498.917 79.625 499.5 77.625 499.5 75.375ZM569.062 8V99H551.938V8H569.062ZM597.312 8V21.5625H524V8H597.312ZM659.375 8H676.562V68.4375C676.562 75.3958 675.062 81.25 672.062 86C669.062 90.7083 664.979 94.2708 659.812 96.6875C654.646 99.0625 648.771 100.25 642.188 100.25C635.521 100.25 629.583 99.0625 624.375 96.6875C619.167 94.2708 615.083 90.7083 612.125 86C609.167 81.25 607.688 75.3958 607.688 68.4375V8H624.875V68.4375C624.875 72.6875 625.583 76.1667 627 78.875C628.417 81.5417 630.417 83.5208 633 84.8125C635.583 86.1042 638.646 86.75 642.188 86.75C645.771 86.75 648.833 86.1042 651.375 84.8125C653.958 83.5208 655.938 81.5417 657.312 78.875C658.688 76.1667 659.375 72.6875 659.375 68.4375V8ZM720.062 99H700.438L700.562 85.5H720.062C725.354 85.5 729.792 84.3333 733.375 82C736.958 79.625 739.667 76.2292 741.5 71.8125C743.333 67.3542 744.25 62.0208 744.25 55.8125V51.125C744.25 46.3333 743.729 42.1042 742.688 38.4375C741.646 34.7708 740.104 31.6875 738.062 29.1875C736.062 26.6875 733.583 24.7917 730.625 23.5C727.667 22.2083 724.271 21.5625 720.438 21.5625H700.062V8H720.438C726.521 8 732.062 9.02083 737.062 11.0625C742.104 13.1042 746.458 16.0417 750.125 19.875C753.833 23.6667 756.667 28.2083 758.625 33.5C760.625 38.7917 761.625 44.7083 761.625 51.25V55.8125C761.625 62.3125 760.625 68.2292 758.625 73.5625C756.667 78.8542 753.833 83.3958 750.125 87.1875C746.458 90.9792 742.083 93.8958 737 95.9375C731.917 97.9792 726.271 99 720.062 99ZM710.062 8V99H692.875V8H710.062ZM794.562 8V99H777.375V8H794.562ZM886.812 51.1875V55.875C886.812 62.75 885.896 68.9375 884.062 74.4375C882.229 79.8958 879.625 84.5417 876.25 88.375C872.875 92.2083 868.854 95.1458 864.188 97.1875C859.521 99.2292 854.333 100.25 848.625 100.25C843 100.25 837.833 99.2292 833.125 97.1875C828.458 95.1458 824.417 92.2083 821 88.375C817.583 84.5417 814.938 79.8958 813.062 74.4375C811.188 68.9375 810.25 62.75 810.25 55.875V51.1875C810.25 44.2708 811.188 38.0833 813.062 32.625C814.938 27.1667 817.562 22.5208 820.938 18.6875C824.312 14.8125 828.333 11.8542 833 9.8125C837.708 7.77083 842.875 6.75 848.5 6.75C854.208 6.75 859.396 7.77083 864.062 9.8125C868.729 11.8542 872.75 14.8125 876.125 18.6875C879.542 22.5208 882.167 27.1667 884 32.625C885.875 38.0833 886.812 44.2708 886.812 51.1875ZM869.438 55.875V51.0625C869.438 46.1042 868.979 41.75 868.062 38C867.146 34.2083 865.792 31.0208 864 28.4375C862.208 25.8542 860 23.9167 857.375 22.625C854.75 21.2917 851.792 20.625 848.5 20.625C845.167 20.625 842.208 21.2917 839.625 22.625C837.083 23.9167 834.917 25.8542 833.125 28.4375C831.333 31.0208 829.958 34.2083 829 38C828.083 41.75 827.625 46.1042 827.625 51.0625V55.875C827.625 60.7917 828.083 65.1458 829 68.9375C829.958 72.7292 831.333 75.9375 833.125 78.5625C834.958 81.1458 837.167 83.1042 839.75 84.4375C842.333 85.7708 845.292 86.4375 848.625 86.4375C851.958 86.4375 854.917 85.7708 857.5 84.4375C860.083 83.1042 862.25 81.1458 864 78.5625C865.792 75.9375 867.146 72.7292 868.062 68.9375C868.979 65.1458 869.438 60.7917 869.438 55.875ZM949 75.375C949 73.625 948.729 72.0625 948.188 70.6875C947.688 69.2708 946.75 68 945.375 66.875C944.042 65.7083 942.146 64.5833 939.688 63.5C937.271 62.375 934.146 61.2083 930.312 60C926.062 58.6667 922.104 57.1667 918.438 55.5C914.771 53.8333 911.542 51.8958 908.75 49.6875C906 47.4792 903.854 44.9375 902.312 42.0625C900.771 39.1458 900 35.7708 900 31.9375C900 28.1875 900.792 24.7708 902.375 21.6875C904 18.6042 906.292 15.9583 909.25 13.75C912.208 11.5 915.688 9.77083 919.688 8.5625C923.729 7.35417 928.188 6.75 933.062 6.75C939.812 6.75 945.646 7.97917 950.562 10.4375C955.521 12.8958 959.354 16.2292 962.062 20.4375C964.771 24.6458 966.125 29.375 966.125 34.625H949C949 31.7917 948.396 29.2917 947.188 27.125C946.021 24.9583 944.229 23.25 941.812 22C939.438 20.75 936.438 20.125 932.812 20.125C929.312 20.125 926.396 20.6458 924.062 21.6875C921.771 22.7292 920.042 24.1458 918.875 25.9375C917.75 27.7292 917.188 29.7292 917.188 31.9375C917.188 33.6042 917.583 35.1042 918.375 36.4375C919.167 37.7292 920.354 38.9583 921.938 40.125C923.521 41.25 925.479 42.3125 927.812 43.3125C930.188 44.2708 932.938 45.2292 936.062 46.1875C941.062 47.6875 945.438 49.3542 949.188 51.1875C952.979 53.0208 956.125 55.1042 958.625 57.4375C961.167 59.7708 963.062 62.3958 964.312 65.3125C965.604 68.2292 966.25 71.5417 966.25 75.25C966.25 79.1667 965.479 82.6667 963.938 85.75C962.396 88.8333 960.188 91.4583 957.312 93.625C954.438 95.7917 950.979 97.4375 946.938 98.5625C942.938 99.6875 938.458 100.25 933.5 100.25C929.083 100.25 924.708 99.6667 920.375 98.5C916.083 97.2917 912.188 95.5 908.688 93.125C905.188 90.7083 902.396 87.6667 900.312 84C898.229 80.2917 897.188 75.9583 897.188 71H914.438C914.438 73.875 914.896 76.3333 915.812 78.375C916.771 80.375 918.104 82.0208 919.812 83.3125C921.562 84.5625 923.604 85.4792 925.938 86.0625C928.271 86.6458 930.792 86.9375 933.5 86.9375C937 86.9375 939.875 86.4583 942.125 85.5C944.417 84.5 946.125 83.125 947.25 81.375C948.417 79.625 949 77.625 949 75.375Z" fill="#F45D54"/>
</g>
<defs>
<filter id="filter0_d_438_169" x="13.6875" y="6.75" width="387.375" height="101.5" filterUnits="userSpaceOnUse" color-interpolation-filters="sRGB">
<feFlood flood-opacity="0" result="BackgroundImageFix"/>
<feColorMatrix in="SourceAlpha" type="matrix" values="0 0 0 0 0 0 0 0 0 0 0 0 0 0 0 0 0 0 127 0" result="hardAlpha"/>
<feOffset dy="4"/>
<feGaussianBlur stdDeviation="2"/>
<feComposite in2="hardAlpha" operator="out"/>
<feColorMatrix type="matrix" values="0 0 0 0 0 0 0 0 0 0 0 0 0 0 0 0 0 0 0.25 0"/>
<feBlend mode="normal" in2="BackgroundImageFix" result="effect1_dropShadow_438_169"/>
<feBlend mode="normal" in="SourceGraphic" in2="effect1_dropShadow_438_169" result="shape"/>
</filter>
<filter id="filter1_d_438_169" x="433" y="0" width="548" height="118" filterUnits="userSpaceOnUse" color-interpolation-filters="sRGB">
<feFlood flood-opacity="0" result="BackgroundImageFix"/>
<feColorMatrix in="SourceAlpha" type="matrix" values="0 0 0 0 0 0 0 0 0 0 0 0 0 0 0 0 0 0 127 0" result="hardAlpha"/>
<feOffset dy="4"/>
<feGaussianBlur stdDeviation="2"/>
<feComposite in2="hardAlpha" operator="out"/>
<feColorMatrix type="matrix" values="0 0 0 0 0 0 0 0 0 0 0 0 0 0 0 0 0 0 0.25 0"/>
<feBlend mode="normal" in2="BackgroundImageFix" result="effect1_dropShadow_438_169"/>
<feBlend mode="normal" in="SourceGraphic" in2="effect1_dropShadow_438_169" result="shape"/>
</filter>
<filter id="filter2_i_438_169" x="447.688" y="6.75" width="518.562" height="97.5" filterUnits="userSpaceOnUse" color-interpolation-filters="sRGB">
<feFlood flood-opacity="0" result="BackgroundImageFix"/>
<feBlend mode="normal" in="SourceGraphic" in2="BackgroundImageFix" result="shape"/>
<feColorMatrix in="SourceAlpha" type="matrix" values="0 0 0 0 0 0 0 0 0 0 0 0 0 0 0 0 0 0 127 0" result="hardAlpha"/>
<feOffset dy="4"/>
<feGaussianBlur stdDeviation="2"/>
<feComposite in2="hardAlpha" operator="arithmetic" k2="-1" k3="1"/>
<feColorMatrix type="matrix" values="0 0 0 0 0 0 0 0 0 0 0 0 0 0 0 0 0 0 0.25 0"/>
<feBlend mode="normal" in2="shape" result="effect1_innerShadow_438_169"/>
</filter>
</defs>
</svg>
