<svg width="208" height="154" viewBox="0 0 208 154" fill="none" xmlns="http://www.w3.org/2000/svg">
<g filter="url(#filter0_d_438_178)">
<rect x="4" width="200" height="110" rx="25" fill="white"/>
</g>
<g filter="url(#filter1_i_438_178)">
<path d="M44.5355 93.573C41.9927 93.573 39.7677 92.6158 37.8606 90.7015C35.9535 88.7871 35 86.5538 35 84.0013V26.5716C35 24.0192 35.9535 21.7858 37.8606 19.8715C39.7677 17.9572 41.9927 17 44.5355 17H152.604C155.147 17 157.372 17.9572 159.279 19.8715C161.186 21.7858 162.14 24.0192 162.14 26.5716V84.0013C162.14 86.5538 161.186 88.7871 159.279 90.7015C157.372 92.6158 155.147 93.573 152.604 93.573H44.5355ZM68.3742 76.6631H77.9097V60.0723H94.4379V50.5007H77.9097V33.9099H68.3742V50.5007H51.846V60.0723H68.3742V76.6631ZM116.529 73.7916C118.436 73.7916 120.104 73.0737 121.535 71.638C122.965 70.2023 123.68 68.5272 123.68 66.6129C123.68 64.6986 122.965 63.0235 121.535 61.5878C120.104 60.1521 118.436 59.4342 116.529 59.4342C114.621 59.4342 112.953 60.1521 111.522 61.5878C110.092 63.0235 109.377 64.6986 109.377 66.6129C109.377 68.5272 110.092 70.2023 111.522 71.638C112.953 73.0737 114.621 73.7916 116.529 73.7916ZM130.832 50.9792C132.739 50.9792 134.408 50.2614 135.838 48.8256C137.268 47.3899 137.983 45.7149 137.983 43.8005C137.983 41.8862 137.268 40.2112 135.838 38.7754C134.408 37.3397 132.739 36.6218 130.832 36.6218C128.925 36.6218 127.256 37.3397 125.826 38.7754C124.395 40.2112 123.68 41.8862 123.68 43.8005C123.68 45.7149 124.395 47.3899 125.826 48.8256C127.256 50.2614 128.925 50.9792 130.832 50.9792Z" fill="#FF6953"/>
</g>
<g filter="url(#filter2_d_438_178)">
<path d="M34.0625 133.172V134.094C34.0625 135.833 33.8177 137.396 33.3281 138.781C32.849 140.156 32.1667 141.333 31.2812 142.312C30.3958 143.281 29.349 144.026 28.1406 144.547C26.9323 145.057 25.599 145.312 24.1406 145.312C22.6719 145.312 21.3281 145.057 20.1094 144.547C18.901 144.026 17.849 143.281 16.9531 142.312C16.0677 141.333 15.3802 140.156 14.8906 138.781C14.4115 137.396 14.1719 135.833 14.1719 134.094V133.172C14.1719 131.432 14.4115 129.87 14.8906 128.484C15.3802 127.099 16.0625 125.922 16.9375 124.953C17.8229 123.974 18.8698 123.229 20.0781 122.719C21.2969 122.198 22.6406 121.938 24.1094 121.938C25.5677 121.938 26.901 122.198 28.1094 122.719C29.3281 123.229 30.3802 123.974 31.2656 124.953C32.151 125.922 32.8385 127.099 33.3281 128.484C33.8177 129.87 34.0625 131.432 34.0625 133.172ZM28.5 134.094V133.141C28.5 132.016 28.401 131.026 28.2031 130.172C28.0156 129.307 27.7344 128.583 27.3594 128C26.9844 127.417 26.5208 126.979 25.9688 126.688C25.4271 126.385 24.8073 126.234 24.1094 126.234C23.3802 126.234 22.7448 126.385 22.2031 126.688C21.6615 126.979 21.2083 127.417 20.8438 128C20.4792 128.583 20.2031 129.307 20.0156 130.172C19.8385 131.026 19.75 132.016 19.75 133.141V134.094C19.75 135.208 19.8385 136.198 20.0156 137.062C20.2031 137.917 20.4792 138.641 20.8438 139.234C21.2188 139.828 21.6771 140.276 22.2188 140.578C22.7708 140.88 23.4115 141.031 24.1406 141.031C24.8385 141.031 25.4583 140.88 26 140.578C26.5417 140.276 26.9948 139.828 27.3594 139.234C27.7344 138.641 28.0156 137.917 28.2031 137.062C28.401 136.198 28.5 135.208 28.5 134.094ZM49.25 122.25H54.7344V137.109C54.7344 138.88 54.3646 140.38 53.625 141.609C52.8854 142.828 51.849 143.75 50.5156 144.375C49.1823 145 47.6146 145.312 45.8125 145.312C44.0312 145.312 42.4635 145 41.1094 144.375C39.7656 143.75 38.7135 142.828 37.9531 141.609C37.2031 140.38 36.8281 138.88 36.8281 137.109V122.25H42.3281V137.109C42.3281 138.047 42.4635 138.812 42.7344 139.406C43.0052 139.99 43.401 140.417 43.9219 140.688C44.4427 140.958 45.0729 141.094 45.8125 141.094C46.5625 141.094 47.1927 140.958 47.7031 140.688C48.2135 140.417 48.599 139.99 48.8594 139.406C49.1198 138.812 49.25 138.047 49.25 137.109V122.25ZM58.1875 122.25H67.1406C68.8906 122.25 70.4115 122.51 71.7031 123.031C72.9948 123.552 73.9896 124.323 74.6875 125.344C75.3958 126.365 75.75 127.625 75.75 129.125C75.75 130.427 75.5469 131.516 75.1406 132.391C74.7344 133.266 74.1667 133.99 73.4375 134.562C72.7188 135.125 71.8802 135.589 70.9219 135.953L69.125 136.969H61.6094L61.5781 132.734H67.1406C67.8385 132.734 68.4167 132.609 68.875 132.359C69.3333 132.109 69.6771 131.755 69.9062 131.297C70.1458 130.828 70.2656 130.271 70.2656 129.625C70.2656 128.969 70.1458 128.406 69.9062 127.938C69.6667 127.469 69.3125 127.109 68.8438 126.859C68.3854 126.609 67.8177 126.484 67.1406 126.484H63.6719V145H58.1875V122.25ZM70.6406 145L65.6094 134.938L71.4219 134.906L76.5156 144.766V145H70.6406ZM105.641 132.844V142.188C105.255 142.615 104.661 143.073 103.859 143.562C103.068 144.042 102.068 144.453 100.859 144.797C99.651 145.141 98.2292 145.312 96.5938 145.312C95.0833 145.312 93.7135 145.073 92.4844 144.594C91.2552 144.104 90.1979 143.391 89.3125 142.453C88.4375 141.505 87.7604 140.349 87.2812 138.984C86.8125 137.609 86.5781 136.036 86.5781 134.266V133C86.5781 131.229 86.8177 129.656 87.2969 128.281C87.776 126.906 88.4479 125.75 89.3125 124.812C90.1875 123.865 91.2135 123.146 92.3906 122.656C93.5781 122.167 94.8802 121.922 96.2969 121.922C98.3906 121.922 100.094 122.255 101.406 122.922C102.719 123.578 103.714 124.49 104.391 125.656C105.068 126.812 105.479 128.151 105.625 129.672H100.359C100.255 128.922 100.057 128.286 99.7656 127.766C99.4844 127.234 99.0781 126.833 98.5469 126.562C98.0156 126.281 97.3281 126.141 96.4844 126.141C95.8281 126.141 95.2292 126.281 94.6875 126.562C94.1562 126.844 93.7031 127.271 93.3281 127.844C92.9531 128.406 92.6615 129.115 92.4531 129.969C92.2552 130.823 92.1562 131.823 92.1562 132.969V134.266C92.1562 135.401 92.25 136.396 92.4375 137.25C92.6354 138.104 92.9271 138.818 93.3125 139.391C93.7083 139.953 94.2083 140.38 94.8125 140.672C95.4271 140.953 96.151 141.094 96.9844 141.094C97.5677 141.094 98.0677 141.047 98.4844 140.953C98.901 140.849 99.2448 140.724 99.5156 140.578C99.7969 140.422 100.01 140.276 100.156 140.141V136.609H96.3438V132.844H105.641ZM118.484 127.031L112.938 145H107.047L115.406 122.25H119.141L118.484 127.031ZM123.078 145L117.516 127.031L116.797 122.25H120.578L128.984 145H123.078ZM122.859 136.516V140.75H111.188V136.516H122.859ZM133.375 122.25H137.844L142.922 138.078L148 122.25H152.469L144.734 145H141.109L133.375 122.25ZM130.656 122.25H135.281L136.141 139.688V145H130.656V122.25ZM150.562 122.25H155.203V145H149.703V139.688L150.562 122.25ZM174.375 140.781V145H162.25V140.781H174.375ZM164.203 122.25V145H158.719V122.25H164.203ZM172.812 131.281V135.359H162.25V131.281H172.812ZM174.422 122.25V126.484H162.25V122.25H174.422ZM188.344 138.953C188.344 138.599 188.292 138.281 188.188 138C188.083 137.708 187.891 137.438 187.609 137.188C187.328 136.938 186.922 136.688 186.391 136.438C185.87 136.177 185.182 135.906 184.328 135.625C183.328 135.292 182.365 134.917 181.438 134.5C180.51 134.073 179.682 133.578 178.953 133.016C178.224 132.443 177.646 131.776 177.219 131.016C176.792 130.245 176.578 129.349 176.578 128.328C176.578 127.349 176.797 126.469 177.234 125.688C177.672 124.896 178.281 124.224 179.062 123.672C179.854 123.109 180.781 122.682 181.844 122.391C182.906 122.089 184.068 121.938 185.328 121.938C186.995 121.938 188.464 122.229 189.734 122.812C191.016 123.385 192.016 124.203 192.734 125.266C193.464 126.318 193.828 127.562 193.828 129H188.375C188.375 128.427 188.255 127.922 188.016 127.484C187.786 127.047 187.438 126.703 186.969 126.453C186.5 126.203 185.911 126.078 185.203 126.078C184.516 126.078 183.938 126.182 183.469 126.391C183 126.599 182.646 126.88 182.406 127.234C182.167 127.578 182.047 127.958 182.047 128.375C182.047 128.719 182.141 129.031 182.328 129.312C182.526 129.583 182.802 129.839 183.156 130.078C183.521 130.318 183.958 130.547 184.469 130.766C184.99 130.984 185.573 131.198 186.219 131.406C187.427 131.792 188.5 132.224 189.438 132.703C190.385 133.172 191.182 133.708 191.828 134.312C192.484 134.906 192.979 135.583 193.312 136.344C193.656 137.104 193.828 137.964 193.828 138.922C193.828 139.943 193.63 140.849 193.234 141.641C192.839 142.432 192.271 143.104 191.531 143.656C190.792 144.198 189.906 144.609 188.875 144.891C187.844 145.172 186.693 145.312 185.422 145.312C184.255 145.312 183.104 145.167 181.969 144.875C180.844 144.573 179.823 144.115 178.906 143.5C177.99 142.875 177.255 142.078 176.703 141.109C176.161 140.13 175.891 138.969 175.891 137.625H181.391C181.391 138.292 181.479 138.854 181.656 139.312C181.833 139.771 182.094 140.141 182.438 140.422C182.781 140.693 183.203 140.891 183.703 141.016C184.203 141.13 184.776 141.188 185.422 141.188C186.12 141.188 186.682 141.089 187.109 140.891C187.536 140.682 187.849 140.411 188.047 140.078C188.245 139.734 188.344 139.359 188.344 138.953Z" fill="white"/>
</g>
<defs>
<filter id="filter0_d_438_178" x="0" y="0" width="208" height="118" filterUnits="userSpaceOnUse" color-interpolation-filters="sRGB">
<feFlood flood-opacity="0" result="BackgroundImageFix"/>
<feColorMatrix in="SourceAlpha" type="matrix" values="0 0 0 0 0 0 0 0 0 0 0 0 0 0 0 0 0 0 127 0" result="hardAlpha"/>
<feOffset dy="4"/>
<feGaussianBlur stdDeviation="2"/>
<feComposite in2="hardAlpha" operator="out"/>
<feColorMatrix type="matrix" values="0 0 0 0 0 0 0 0 0 0 0 0 0 0 0 0 0 0 0.25 0"/>
<feBlend mode="normal" in2="BackgroundImageFix" result="effect1_dropShadow_438_178"/>
<feBlend mode="normal" in="SourceGraphic" in2="effect1_dropShadow_438_178" result="shape"/>
</filter>
<filter id="filter1_i_438_178" x="35" y="17" width="127.14" height="80.5728" filterUnits="userSpaceOnUse" color-interpolation-filters="sRGB">
<feFlood flood-opacity="0" result="BackgroundImageFix"/>
<feBlend mode="normal" in="SourceGraphic" in2="BackgroundImageFix" result="shape"/>
<feColorMatrix in="SourceAlpha" type="matrix" values="0 0 0 0 0 0 0 0 0 0 0 0 0 0 0 0 0 0 127 0" result="hardAlpha"/>
<feOffset dy="4"/>
<feGaussianBlur stdDeviation="2"/>
<feComposite in2="hardAlpha" operator="arithmetic" k2="-1" k3="1"/>
<feColorMatrix type="matrix" values="0 0 0 0 0 0 0 0 0 0 0 0 0 0 0 0 0 0 0.25 0"/>
<feBlend mode="normal" in2="shape" result="effect1_innerShadow_438_178"/>
</filter>
<filter id="filter2_d_438_178" x="10.1719" y="121.922" width="187.656" height="31.3906" filterUnits="userSpaceOnUse" color-interpolation-filters="sRGB">
<feFlood flood-opacity="0" result="BackgroundImageFix"/>
<feColorMatrix in="SourceAlpha" type="matrix" values="0 0 0 0 0 0 0 0 0 0 0 0 0 0 0 0 0 0 127 0" result="hardAlpha"/>
<feOffset dy="4"/>
<feGaussianBlur stdDeviation="2"/>
<feComposite in2="hardAlpha" operator="out"/>
<feColorMatrix type="matrix" values="0 0 0 0 0 0 0 0 0 0 0 0 0 0 0 0 0 0 0.25 0"/>
<feBlend mode="normal" in2="BackgroundImageFix" result="effect1_dropShadow_438_178"/>
<feBlend mode="normal" in="SourceGraphic" in2="effect1_dropShadow_438_178" result="shape"/>
</filter>
</defs>
</svg>
