<svg width="208" height="154" viewBox="0 0 208 154" fill="none" xmlns="http://www.w3.org/2000/svg">
<g filter="url(#filter0_d_438_182)">
<rect x="4" width="200" height="110" rx="25" fill="white"/>
</g>
<g filter="url(#filter1_d_438_182)">
<path d="M47.8438 137.281H42.1875V133.047H47.8438C48.6146 133.047 49.2396 132.917 49.7188 132.656C50.1979 132.396 50.5469 132.036 50.7656 131.578C50.9948 131.109 51.1094 130.583 51.1094 130C51.1094 129.375 50.9948 128.797 50.7656 128.266C50.5469 127.734 50.1979 127.307 49.7188 126.984C49.2396 126.651 48.6146 126.484 47.8438 126.484H44.25V145H38.7656V122.25H47.8438C49.6667 122.25 51.2344 122.583 52.5469 123.25C53.8698 123.917 54.8854 124.833 55.5938 126C56.3021 127.156 56.6562 128.479 56.6562 129.969C56.6562 131.438 56.3021 132.719 55.5938 133.812C54.8854 134.906 53.8698 135.76 52.5469 136.375C51.2344 136.979 49.6667 137.281 47.8438 137.281ZM59.6094 122.25H68.5625C70.3125 122.25 71.8333 122.51 73.125 123.031C74.4167 123.552 75.4115 124.323 76.1094 125.344C76.8177 126.365 77.1719 127.625 77.1719 129.125C77.1719 130.427 76.9688 131.516 76.5625 132.391C76.1562 133.266 75.5885 133.99 74.8594 134.562C74.1406 135.125 73.3021 135.589 72.3438 135.953L70.5469 136.969H63.0312L63 132.734H68.5625C69.2604 132.734 69.8385 132.609 70.2969 132.359C70.7552 132.109 71.099 131.755 71.3281 131.297C71.5677 130.828 71.6875 130.271 71.6875 129.625C71.6875 128.969 71.5677 128.406 71.3281 127.938C71.0885 127.469 70.7344 127.109 70.2656 126.859C69.8073 126.609 69.2396 126.484 68.5625 126.484H65.0938V145H59.6094V122.25ZM72.0625 145L67.0312 134.938L72.8438 134.906L77.9375 144.766V145H72.0625ZM86.3125 122.25V145H80.8438V122.25H86.3125ZM98.7812 139.641L103.516 122.25H109.656L101.984 145H98.0156L98.7812 139.641ZM94.4844 122.25L99.2188 139.641L100.016 145H96L88.375 122.25H94.4844ZM119.781 127.031L114.234 145H108.344L116.703 122.25H120.438L119.781 127.031ZM124.375 145L118.812 127.031L118.094 122.25H121.875L130.281 145H124.375ZM124.156 136.516V140.75H112.484V136.516H124.156ZM144.547 137.297H150.016C149.943 138.88 149.516 140.276 148.734 141.484C147.953 142.693 146.87 143.635 145.484 144.312C144.109 144.979 142.484 145.312 140.609 145.312C139.089 145.312 137.729 145.057 136.531 144.547C135.344 144.036 134.333 143.302 133.5 142.344C132.677 141.385 132.047 140.224 131.609 138.859C131.182 137.495 130.969 135.958 130.969 134.25V133.016C130.969 131.307 131.193 129.771 131.641 128.406C132.099 127.031 132.745 125.865 133.578 124.906C134.422 123.938 135.432 123.198 136.609 122.688C137.786 122.177 139.094 121.922 140.531 121.922C142.51 121.922 144.182 122.276 145.547 122.984C146.911 123.693 147.969 124.667 148.719 125.906C149.469 127.135 149.911 128.536 150.047 130.109H144.578C144.557 129.255 144.411 128.542 144.141 127.969C143.87 127.385 143.443 126.948 142.859 126.656C142.276 126.365 141.5 126.219 140.531 126.219C139.854 126.219 139.266 126.344 138.766 126.594C138.266 126.844 137.849 127.24 137.516 127.781C137.182 128.323 136.932 129.026 136.766 129.891C136.609 130.745 136.531 131.776 136.531 132.984V134.25C136.531 135.458 136.604 136.49 136.75 137.344C136.896 138.198 137.13 138.896 137.453 139.438C137.776 139.979 138.193 140.38 138.703 140.641C139.224 140.891 139.859 141.016 140.609 141.016C141.443 141.016 142.146 140.885 142.719 140.625C143.292 140.354 143.734 139.948 144.047 139.406C144.359 138.854 144.526 138.151 144.547 137.297ZM156.734 122.25L160.922 132.125L165.125 122.25H171.031L163.719 136.828V145H158.141V136.828L150.812 122.25H156.734Z" fill="white"/>
</g>
<g filter="url(#filter2_i_438_182)">
<path d="M104 74.6667C92.9333 74.6667 84 65.7333 84 54.6667C84 43.6 92.9333 34.6667 104 34.6667C115.067 34.6667 124 43.6 124 54.6667C124 59 122.6 62.9333 120.267 66.2L134.267 80.2C140.4 71.4667 144 60.9333 144 50.0667V21.3333L104 8L64 21.3333V50.0667C64 73.7333 81.0667 95.9333 104 101.333C114.2 98.9333 123.267 93.2 130.133 85.5333L115.533 70.9333C112.267 73.2667 108.333 74.6667 104 74.6667Z" fill="#FF6953"/>
<path d="M104 67.9997C111.364 67.9997 117.333 62.0301 117.333 54.6663C117.333 47.3025 111.364 41.333 104 41.333C96.6363 41.333 90.6667 47.3025 90.6667 54.6663C90.6667 62.0301 96.6363 67.9997 104 67.9997Z" fill="#FF6953"/>
</g>
<defs>
<filter id="filter0_d_438_182" x="0" y="0" width="208" height="118" filterUnits="userSpaceOnUse" color-interpolation-filters="sRGB">
<feFlood flood-opacity="0" result="BackgroundImageFix"/>
<feColorMatrix in="SourceAlpha" type="matrix" values="0 0 0 0 0 0 0 0 0 0 0 0 0 0 0 0 0 0 127 0" result="hardAlpha"/>
<feOffset dy="4"/>
<feGaussianBlur stdDeviation="2"/>
<feComposite in2="hardAlpha" operator="out"/>
<feColorMatrix type="matrix" values="0 0 0 0 0 0 0 0 0 0 0 0 0 0 0 0 0 0 0.25 0"/>
<feBlend mode="normal" in2="BackgroundImageFix" result="effect1_dropShadow_438_182"/>
<feBlend mode="normal" in="SourceGraphic" in2="effect1_dropShadow_438_182" result="shape"/>
</filter>
<filter id="filter1_d_438_182" x="34.7656" y="121.922" width="140.266" height="31.3906" filterUnits="userSpaceOnUse" color-interpolation-filters="sRGB">
<feFlood flood-opacity="0" result="BackgroundImageFix"/>
<feColorMatrix in="SourceAlpha" type="matrix" values="0 0 0 0 0 0 0 0 0 0 0 0 0 0 0 0 0 0 127 0" result="hardAlpha"/>
<feOffset dy="4"/>
<feGaussianBlur stdDeviation="2"/>
<feComposite in2="hardAlpha" operator="out"/>
<feColorMatrix type="matrix" values="0 0 0 0 0 0 0 0 0 0 0 0 0 0 0 0 0 0 0.25 0"/>
<feBlend mode="normal" in2="BackgroundImageFix" result="effect1_dropShadow_438_182"/>
<feBlend mode="normal" in="SourceGraphic" in2="effect1_dropShadow_438_182" result="shape"/>
</filter>
<filter id="filter2_i_438_182" x="64" y="8" width="80" height="97.3335" filterUnits="userSpaceOnUse" color-interpolation-filters="sRGB">
<feFlood flood-opacity="0" result="BackgroundImageFix"/>
<feBlend mode="normal" in="SourceGraphic" in2="BackgroundImageFix" result="shape"/>
<feColorMatrix in="SourceAlpha" type="matrix" values="0 0 0 0 0 0 0 0 0 0 0 0 0 0 0 0 0 0 127 0" result="hardAlpha"/>
<feOffset dy="4"/>
<feGaussianBlur stdDeviation="2"/>
<feComposite in2="hardAlpha" operator="arithmetic" k2="-1" k3="1"/>
<feColorMatrix type="matrix" values="0 0 0 0 0 0 0 0 0 0 0 0 0 0 0 0 0 0 0.25 0"/>
<feBlend mode="normal" in2="shape" result="effect1_innerShadow_438_182"/>
</filter>
</defs>
</svg>
